<svg viewBox="0 0 496 496" fill="currentColor" xmlns="http://www.w3.org/2000/svg">
<path d="M496 248C496 384.997 384.957 496 248 496C111.043 496 0 384.997 0 248C0 111.083 111.043 0 248 0C384.957 0 496 111.083 496 248ZM254.655 82C200.158 82 165.4 104.957 138.106 145.758C134.57 151.044 135.753 158.173 140.821 162.016L175.52 188.326C180.725 192.273 188.141 191.334 192.185 186.204C210.049 163.546 222.298 150.407 249.488 150.407C269.917 150.407 295.186 163.555 295.186 183.365C295.186 198.341 282.823 206.032 262.652 217.341C239.128 230.528 208 246.941 208 288V292C208 298.627 213.373 304 220 304H276C282.627 304 288 298.627 288 292V290.667C288 262.205 371.186 261.02 371.186 184C371.186 125.998 311.021 82 254.655 82V82ZM248 330C222.635 330 202 350.635 202 376C202 401.364 222.635 422 248 422C273.365 422 294 401.364 294 376C294 350.635 273.365 330 248 330Z"/>
</svg>